<svg id="visual" viewBox="0 0 960 100" width="960" height="100" xmlns="http://www.w3.org/2000/svg" xmlns:xlink="http://www.w3.org/1999/xlink" version="1.1"><rect x="0" y="0" width="960" height="100" fill="#e1e1e1"></rect><path d="M0 24L10 26.2C20 28.3 40 32.7 60 31.7C80 30.7 100 24.3 120 28.7C140 33 160 48 180 49.2C200 50.3 220 37.7 240 30.5C260 23.3 280 21.7 300 26.2C320 30.7 340 41.3 360 39.8C380 38.3 400 24.7 420 18.3C440 12 460 13 480 21C500 29 520 44 540 51.5C560 59 580 59 600 53.5C620 48 640 37 660 35.3C680 33.7 700 41.3 720 40.2C740 39 760 29 780 27C800 25 820 31 840 29.7C860 28.3 880 19.7 900 17.2C920 14.7 940 18.3 950 20.2L960 22L960 101L950 101C940 101 920 101 900 101C880 101 860 101 840 101C820 101 800 101 780 101C760 101 740 101 720 101C700 101 680 101 660 101C640 101 620 101 600 101C580 101 560 101 540 101C520 101 500 101 480 101C460 101 440 101 420 101C400 101 380 101 360 101C340 101 320 101 300 101C280 101 260 101 240 101C220 101 200 101 180 101C160 101 140 101 120 101C100 101 80 101 60 101C40 101 20 101 10 101L0 101Z" fill="#cfcfcf"></path><path d="M0 45L10 42.3C20 39.7 40 34.3 60 34.7C80 35 100 41 120 45.2C140 49.3 160 51.7 180 52C200 52.3 220 50.7 240 50.5C260 50.3 280 51.7 300 53C320 54.3 340 55.7 360 55.2C380 54.7 400 52.3 420 51.7C440 51 460 52 480 51.3C500 50.7 520 48.3 540 43.5C560 38.7 580 31.3 600 28C620 24.7 640 25.3 660 30.5C680 35.7 700 45.3 720 46.2C740 47 760 39 780 36.5C800 34 820 37 840 42.3C860 47.7 880 55.3 900 58.2C920 61 940 59 950 58L960 57L960 101L950 101C940 101 920 101 900 101C880 101 860 101 840 101C820 101 800 101 780 101C760 101 740 101 720 101C700 101 680 101 660 101C640 101 620 101 600 101C580 101 560 101 540 101C520 101 500 101 480 101C460 101 440 101 420 101C400 101 380 101 360 101C340 101 320 101 300 101C280 101 260 101 240 101C220 101 200 101 180 101C160 101 140 101 120 101C100 101 80 101 60 101C40 101 20 101 10 101L0 101Z" fill="#c2c2c2"></path><path d="M0 76L10 77.2C20 78.3 40 80.7 60 80C80 79.3 100 75.7 120 68.8C140 62 160 52 180 50.8C200 49.7 220 57.3 240 63.2C260 69 280 73 300 75.3C320 77.7 340 78.3 360 76.2C380 74 400 69 420 66.3C440 63.7 460 63.3 480 63C500 62.7 520 62.3 540 58.5C560 54.7 580 47.3 600 50.2C620 53 640 66 660 72.8C680 79.7 700 80.3 720 75.2C740 70 760 59 780 53.3C800 47.7 820 47.3 840 51.2C860 55 880 63 900 62.5C920 62 940 53 950 48.5L960 44L960 101L950 101C940 101 920 101 900 101C880 101 860 101 840 101C820 101 800 101 780 101C760 101 740 101 720 101C700 101 680 101 660 101C640 101 620 101 600 101C580 101 560 101 540 101C520 101 500 101 480 101C460 101 440 101 420 101C400 101 380 101 360 101C340 101 320 101 300 101C280 101 260 101 240 101C220 101 200 101 180 101C160 101 140 101 120 101C100 101 80 101 60 101C40 101 20 101 10 101L0 101Z" fill="#b5b5b5"></path><path d="M0 87L10 85.3C20 83.7 40 80.3 60 77.8C80 75.3 100 73.7 120 70.7C140 67.7 160 63.3 180 64.2C200 65 220 71 240 70.3C260 69.7 280 62.3 300 60.8C320 59.3 340 63.7 360 64.3C380 65 400 62 420 63.7C440 65.3 460 71.7 480 73.2C500 74.7 520 71.3 540 69.2C560 67 580 66 600 65.8C620 65.7 640 66.3 660 64.7C680 63 700 59 720 57C740 55 760 55 780 57.3C800 59.7 820 64.3 840 69C860 73.7 880 78.3 900 76.7C920 75 940 67 950 63L960 59L960 101L950 101C940 101 920 101 900 101C880 101 860 101 840 101C820 101 800 101 780 101C760 101 740 101 720 101C700 101 680 101 660 101C640 101 620 101 600 101C580 101 560 101 540 101C520 101 500 101 480 101C460 101 440 101 420 101C400 101 380 101 360 101C340 101 320 101 300 101C280 101 260 101 240 101C220 101 200 101 180 101C160 101 140 101 120 101C100 101 80 101 60 101C40 101 20 101 10 101L0 101Z" fill="#a8a8a8"></path><path d="M0 76L10 77.8C20 79.7 40 83.3 60 83C80 82.7 100 78.3 120 79.3C140 80.3 160 86.7 180 86.2C200 85.7 220 78.3 240 75.2C260 72 280 73 300 73.5C320 74 340 74 360 73.3C380 72.7 400 71.3 420 71.5C440 71.7 460 73.3 480 75C500 76.7 520 78.3 540 81.2C560 84 580 88 600 90.8C620 93.7 640 95.3 660 96.2C680 97 700 97 720 94.2C740 91.3 760 85.7 780 81.8C800 78 820 76 840 74.7C860 73.3 880 72.7 900 74.5C920 76.3 940 80.7 950 82.8L960 85L960 101L950 101C940 101 920 101 900 101C880 101 860 101 840 101C820 101 800 101 780 101C760 101 740 101 720 101C700 101 680 101 660 101C640 101 620 101 600 101C580 101 560 101 540 101C520 101 500 101 480 101C460 101 440 101 420 101C400 101 380 101 360 101C340 101 320 101 300 101C280 101 260 101 240 101C220 101 200 101 180 101C160 101 140 101 120 101C100 101 80 101 60 101C40 101 20 101 10 101L0 101Z" fill="#9c9c9c"></path></svg>