<svg id="visual" viewBox="0 0 960 100" width="960" height="100" xmlns="http://www.w3.org/2000/svg" xmlns:xlink="http://www.w3.org/1999/xlink" version="1.1"><rect x="0" y="0" width="960" height="100" fill="#E1E1E1"></rect><path d="M0 47L14.5 40.5C29 34 58 21 87.2 24.8C116.3 28.7 145.7 49.3 174.8 53C204 56.7 233 43.3 262 43.3C291 43.3 320 56.7 349 54.2C378 51.7 407 33.3 436.2 31C465.3 28.7 494.7 42.3 523.8 40.2C553 38 582 20 611 12.7C640 5.3 669 8.7 698 15.8C727 23 756 34 785.2 41.7C814.3 49.3 843.7 53.7 872.8 53.2C902 52.7 931 47.3 945.5 44.7L960 42L960 101L945.5 101C931 101 902 101 872.8 101C843.7 101 814.3 101 785.2 101C756 101 727 101 698 101C669 101 640 101 611 101C582 101 553 101 523.8 101C494.7 101 465.3 101 436.2 101C407 101 378 101 349 101C320 101 291 101 262 101C233 101 204 101 174.8 101C145.7 101 116.3 101 87.2 101C58 101 29 101 14.5 101L0 101Z" fill="#d3d0cd"></path><path d="M0 86L14.5 83.3C29 80.7 58 75.3 87.2 72.8C116.3 70.3 145.7 70.7 174.8 63.2C204 55.7 233 40.3 262 40.8C291 41.3 320 57.7 349 61.3C378 65 407 56 436.2 52C465.3 48 494.7 49 523.8 54C553 59 582 68 611 67C640 66 669 55 698 46.8C727 38.7 756 33.3 785.2 30.2C814.3 27 843.7 26 872.8 27.7C902 29.3 931 33.7 945.5 35.8L960 38L960 101L945.5 101C931 101 902 101 872.8 101C843.7 101 814.3 101 785.2 101C756 101 727 101 698 101C669 101 640 101 611 101C582 101 553 101 523.8 101C494.7 101 465.3 101 436.2 101C407 101 378 101 349 101C320 101 291 101 262 101C233 101 204 101 174.8 101C145.7 101 116.3 101 87.2 101C58 101 29 101 14.5 101L0 101Z" fill="#c1bab3"></path><path d="M0 84L14.5 84.7C29 85.3 58 86.7 87.2 83C116.3 79.3 145.7 70.7 174.8 65.5C204 60.3 233 58.7 262 60.3C291 62 320 67 349 71C378 75 407 78 436.2 81.8C465.3 85.7 494.7 90.3 523.8 86.7C553 83 582 71 611 70.7C640 70.3 669 81.7 698 81.8C727 82 756 71 785.2 65.5C814.3 60 843.7 60 872.8 60.7C902 61.3 931 62.7 945.5 63.3L960 64L960 101L945.5 101C931 101 902 101 872.8 101C843.7 101 814.3 101 785.2 101C756 101 727 101 698 101C669 101 640 101 611 101C582 101 553 101 523.8 101C494.7 101 465.3 101 436.2 101C407 101 378 101 349 101C320 101 291 101 262 101C233 101 204 101 174.8 101C145.7 101 116.3 101 87.2 101C58 101 29 101 14.5 101L0 101Z" fill="#b0a59a"></path></svg>