<svg id="visual" viewBox="0 0 960 100" width="960" height="100" xmlns="http://www.w3.org/2000/svg" xmlns:xlink="http://www.w3.org/1999/xlink" version="1.1"><rect x="0" y="0" width="960" height="100" fill="#ffffff"></rect><path d="M0 37L17.8 38.3C35.7 39.7 71.3 42.3 106.8 42.8C142.3 43.3 177.7 41.7 213.2 37.2C248.7 32.7 284.3 25.3 320 24C355.7 22.7 391.3 27.3 426.8 30C462.3 32.7 497.7 33.3 533.2 35.3C568.7 37.3 604.3 40.7 640 38C675.7 35.3 711.3 26.7 746.8 29.8C782.3 33 817.7 48 853.2 48.2C888.7 48.3 924.3 33.7 942.2 26.3L960 19L960 101L942.2 101C924.3 101 888.7 101 853.2 101C817.7 101 782.3 101 746.8 101C711.3 101 675.7 101 640 101C604.3 101 568.7 101 533.2 101C497.7 101 462.3 101 426.8 101C391.3 101 355.7 101 320 101C284.3 101 248.7 101 213.2 101C177.7 101 142.3 101 106.8 101C71.3 101 35.7 101 17.8 101L0 101Z" fill="#d9d9d9"></path><path d="M0 39L17.8 39.2C35.7 39.3 71.3 39.7 106.8 36.3C142.3 33 177.7 26 213.2 31.2C248.7 36.3 284.3 53.7 320 59.5C355.7 65.3 391.3 59.7 426.8 58.2C462.3 56.7 497.7 59.3 533.2 55.8C568.7 52.3 604.3 42.7 640 36.3C675.7 30 711.3 27 746.8 31.5C782.3 36 817.7 48 853.2 55.7C888.7 63.3 924.3 66.7 942.2 68.3L960 70L960 101L942.2 101C924.3 101 888.7 101 853.2 101C817.7 101 782.3 101 746.8 101C711.3 101 675.7 101 640 101C604.3 101 568.7 101 533.2 101C497.7 101 462.3 101 426.8 101C391.3 101 355.7 101 320 101C284.3 101 248.7 101 213.2 101C177.7 101 142.3 101 106.8 101C71.3 101 35.7 101 17.8 101L0 101Z" fill="#a3a3a3"></path><path d="M0 50L17.8 53.2C35.7 56.3 71.3 62.7 106.8 64.7C142.3 66.7 177.7 64.3 213.2 64.7C248.7 65 284.3 68 320 63.7C355.7 59.3 391.3 47.7 426.8 44C462.3 40.3 497.7 44.7 533.2 46.3C568.7 48 604.3 47 640 47.8C675.7 48.7 711.3 51.3 746.8 54.3C782.3 57.3 817.7 60.7 853.2 60.3C888.7 60 924.3 56 942.2 54L960 52L960 101L942.2 101C924.3 101 888.7 101 853.2 101C817.7 101 782.3 101 746.8 101C711.3 101 675.7 101 640 101C604.3 101 568.7 101 533.2 101C497.7 101 462.3 101 426.8 101C391.3 101 355.7 101 320 101C284.3 101 248.7 101 213.2 101C177.7 101 142.3 101 106.8 101C71.3 101 35.7 101 17.8 101L0 101Z" fill="#717171"></path><path d="M0 59L17.8 58.7C35.7 58.3 71.3 57.7 106.8 62.2C142.3 66.7 177.7 76.3 213.2 77.2C248.7 78 284.3 70 320 69.3C355.7 68.7 391.3 75.3 426.8 74.2C462.3 73 497.7 64 533.2 60.2C568.7 56.3 604.3 57.7 640 56.7C675.7 55.7 711.3 52.3 746.8 53.7C782.3 55 817.7 61 853.2 62.5C888.7 64 924.3 61 942.2 59.5L960 58L960 101L942.2 101C924.3 101 888.7 101 853.2 101C817.7 101 782.3 101 746.8 101C711.3 101 675.7 101 640 101C604.3 101 568.7 101 533.2 101C497.7 101 462.3 101 426.8 101C391.3 101 355.7 101 320 101C284.3 101 248.7 101 213.2 101C177.7 101 142.3 101 106.8 101C71.3 101 35.7 101 17.8 101L0 101Z" fill="#424242"></path><path d="M0 89L17.8 87.7C35.7 86.3 71.3 83.7 106.8 82.2C142.3 80.7 177.7 80.3 213.2 78.3C248.7 76.3 284.3 72.7 320 73.5C355.7 74.3 391.3 79.7 426.8 80.2C462.3 80.7 497.7 76.3 533.2 76.5C568.7 76.7 604.3 81.3 640 83.5C675.7 85.7 711.3 85.3 746.8 85.3C782.3 85.3 817.7 85.7 853.2 85.5C888.7 85.3 924.3 84.7 942.2 84.3L960 84L960 101L942.2 101C924.3 101 888.7 101 853.2 101C817.7 101 782.3 101 746.8 101C711.3 101 675.7 101 640 101C604.3 101 568.7 101 533.2 101C497.7 101 462.3 101 426.8 101C391.3 101 355.7 101 320 101C284.3 101 248.7 101 213.2 101C177.7 101 142.3 101 106.8 101C71.3 101 35.7 101 17.8 101L0 101Z" fill="#181818"></path></svg>