<svg id="visual" viewBox="0 0 960 100" width="960" height="100" xmlns="http://www.w3.org/2000/svg" xmlns:xlink="http://www.w3.org/1999/xlink" version="1.1"><rect x="0" y="0" width="960" height="100" fill="#E1E1E1"></rect><path d="M0 84L14.5 83.8C29 83.7 58 83.3 87.2 85C116.3 86.7 145.7 90.3 174.8 89.8C204 89.3 233 84.7 262 85.3C291 86 320 92 349 85.5C378 79 407 60 436.2 54C465.3 48 494.7 55 523.8 54C553 53 582 44 611 41.3C640 38.7 669 42.3 698 47.8C727 53.3 756 60.7 785.2 60C814.3 59.3 843.7 50.7 872.8 43.8C902 37 931 32 945.5 29.5L960 27L960 0L945.5 0C931 0 902 0 872.8 0C843.7 0 814.3 0 785.2 0C756 0 727 0 698 0C669 0 640 0 611 0C582 0 553 0 523.8 0C494.7 0 465.3 0 436.2 0C407 0 378 0 349 0C320 0 291 0 262 0C233 0 204 0 174.8 0C145.7 0 116.3 0 87.2 0C58 0 29 0 14.5 0L0 0Z" fill="#cfcfcf"></path><path d="M0 17L14.5 22.3C29 27.7 58 38.3 87.2 47.3C116.3 56.3 145.7 63.7 174.8 65.3C204 67 233 63 262 58.5C291 54 320 49 349 51C378 53 407 62 436.2 66C465.3 70 494.7 69 523.8 61.2C553 53.3 582 38.7 611 34C640 29.3 669 34.7 698 37C727 39.3 756 38.7 785.2 43.5C814.3 48.3 843.7 58.7 872.8 64.2C902 69.7 931 70.3 945.5 70.7L960 71L960 0L945.5 0C931 0 902 0 872.8 0C843.7 0 814.3 0 785.2 0C756 0 727 0 698 0C669 0 640 0 611 0C582 0 553 0 523.8 0C494.7 0 465.3 0 436.2 0C407 0 378 0 349 0C320 0 291 0 262 0C233 0 204 0 174.8 0C145.7 0 116.3 0 87.2 0C58 0 29 0 14.5 0L0 0Z" fill="#b5b5b5"></path><path d="M0 6L14.5 6.8C29 7.7 58 9.3 87.2 16C116.3 22.7 145.7 34.3 174.8 36.7C204 39 233 32 262 28.3C291 24.7 320 24.3 349 21.5C378 18.7 407 13.3 436.2 16.8C465.3 20.3 494.7 32.7 523.8 38.3C553 44 582 43 611 40.3C640 37.7 669 33.3 698 33.3C727 33.3 756 37.7 785.2 40.2C814.3 42.7 843.7 43.3 872.8 36.3C902 29.3 931 14.7 945.5 7.3L960 0L960 0L945.5 0C931 0 902 0 872.8 0C843.7 0 814.3 0 785.2 0C756 0 727 0 698 0C669 0 640 0 611 0C582 0 553 0 523.8 0C494.7 0 465.3 0 436.2 0C407 0 378 0 349 0C320 0 291 0 262 0C233 0 204 0 174.8 0C145.7 0 116.3 0 87.2 0C58 0 29 0 14.5 0L0 0Z" fill="#9c9c9c"></path></svg>